<?xml version="1.0" encoding="UTF-8"?><svg id="Ebene_2" xmlns="http://www.w3.org/2000/svg" viewBox="0 0 1292.88 256.8"><defs><style>.cls-1{fill:#179c7d;}.cls-2{fill:#b2d235;}</style></defs><g id="Ebene_2-2"><circle class="cls-2" cx="601.76" cy="152.38" r="22.06"/><path class="cls-1" d="m563.39,136.07c-12.18,0-22.06-9.88-22.06-22.06s9.88-22.06,22.06-22.06,22.06,9.88,22.06,22.06-9.88,22.06-22.06,22.06Z"/><circle class="cls-2" cx="568.18" cy="185.96" r="17.1"/><circle class="cls-1" cx="529.81" cy="147.59" r="17.1"/><circle class="cls-2" cx="534.44" cy="213.58" r="13.01"/><circle class="cls-1" cx="503.72" cy="182.85" r="13.01"/><circle class="cls-2" cx="506.5" cy="238.47" r="8.92"/><circle class="cls-1" cx="480.36" cy="212.33" r="8.92"/><circle class="cls-2" cx="475.73" cy="241.67" r="4.79"/><circle class="cls-2" cx="676.24" cy="149.56" r="22.06"/><circle class="cls-1" cx="709.83" cy="183.15" r="17.1"/><circle class="cls-2" cx="636.3" cy="186.36" r="17.1"/><circle class="cls-1" cx="737.44" cy="216.88" r="13.01"/><circle class="cls-2" cx="671.55" cy="212.44" r="13.01"/><circle class="cls-1" cx="753.16" cy="247.88" r="8.92"/><circle class="cls-2" cx="701.03" cy="235.8" r="8.92"/><circle class="cls-1" cx="676.36" cy="149.45" r="22.06"/><circle class="cls-2" cx="638.38" cy="110.12" r="22.06"/><circle class="cls-2" cx="671.96" cy="76.54" r="17.1"/><circle class="cls-1" cx="710.33" cy="114.91" r="17.1"/><path class="cls-2" d="m718.71,48.92c0,7.19-5.83,13.01-13.01,13.01-7.19,0-13.01-5.83-13.01-13.01s5.83-13.01,13.01-13.01,13.01,5.83,13.01,13.01Z"/><circle class="cls-1" cx="736.42" cy="79.65" r="13.01"/><circle class="cls-2" cx="733.64" cy="24.04" r="8.92"/><circle class="cls-1" cx="759.78" cy="50.18" r="8.92"/><circle class="cls-1" cx="764.41" cy="20.84" r="4.79"/><circle class="cls-1" cx="526.84" cy="76.72" r="17.1"/><circle class="cls-2" cx="600.37" cy="73.51" r="17.1"/><circle class="cls-1" cx="499.22" cy="42.98" r="13.01"/><circle class="cls-2" cx="565.11" cy="47.42" r="13.01"/><circle class="cls-1" cx="483.5" cy="8.92" r="8.92"/><circle class="cls-2" cx="535.63" cy="24.06" r="8.92"/><path d="m0,36.21h24.77l59.03,142.14,59.26-142.14h22.92v161.58h-15.97V52.18h-.46l-58.8,145.61h-13.66L16.44,52.18h-.46v145.61H0V36.21Z"/><path d="m204.41,36.21h40.05c28.71.31,49.46,7.79,62.27,22.46,12.5,14.66,18.67,34.03,18.52,58.11-.31,28.86-9.03,49.62-26.16,62.27-16.98,12.5-39.12,18.75-66.44,18.75h-28.24V36.21Zm15.97,147.7h13.2c49.23,1.08,74.46-21.61,75.7-68.06-.31-24.38-6.64-41.59-18.98-51.62-12.5-9.57-28.01-14.27-46.53-14.12h-23.38v133.81Z"/><path d="m355.81,177.19c9.1,6.33,20.99,9.49,35.65,9.49,10.34,0,18.98-2.7,25.93-8.1,6.79-5.4,10.26-13.73,10.42-25-.16-7.87-4.01-14.5-11.58-19.91-3.4-2.78-7.33-5.4-11.81-7.87-4.48-2.47-9.03-4.94-13.66-7.41-4.63-2.62-9.11-5.4-13.43-8.33-4.48-2.78-8.49-5.86-12.04-9.26-7.56-6.63-11.42-15.05-11.58-25.23.15-13.12,5.17-23.46,15.05-31.02,9.57-7.25,21.6-10.96,36.11-11.11,4.17,0,9.1.31,14.82.93,5.71.93,11.34,2.39,16.9,4.4l-2.55,14.58c-7.87-4.01-17.67-6.02-29.4-6.02-4.17,0-8.26.39-12.27,1.16-4.01.93-7.79,2.55-11.34,4.86-3.24,2.01-5.94,4.79-8.1,8.33-2.16,3.7-3.24,8.18-3.24,13.43,0,3.86,1.08,7.41,3.24,10.65,2.16,3.24,4.94,6.1,8.33,8.57,3.55,2.63,7.56,5.09,12.04,7.41,4.32,2.47,8.8,5.02,13.43,7.64,9.72,4.63,18.21,10.5,25.46,17.59,3.55,3.4,6.4,7.41,8.57,12.04,2,4.63,3.01,9.96,3.01,15.97-.31,16.05-5.94,27.7-16.9,34.96-10.8,7.1-22.84,10.65-36.11,10.65-15.74-.33-27.94-2.8-36.58-7.41l1.62-15.97Z"/><path d="m809.75,36.21h20.14l82.18,142.14h.46V36.21h15.97v161.58h-21.53l-80.79-139.36h-.46v139.36h-15.97V36.21Z"/><path d="m966.7,36.21h41.67c30.87-.46,46.68,13.51,47.46,41.9-.16,10.5-3.63,18.91-10.42,25.23-6.79,6.48-15.28,10.5-25.46,12.04v.46c6.17.77,10.65,2.78,13.43,6.02,1.54,1.54,2.85,3.47,3.94,5.79,1.23,2.31,2.39,4.86,3.47,7.64l27.55,62.5h-17.59l-23.38-54.63c-4.32-10.03-8.8-16.28-13.43-18.75-2.32-1.39-4.94-2.24-7.87-2.55-2.93-.15-6.33-.23-10.19-.23h-13.2v76.16h-15.97V36.21Zm15.97,71.53h16.9c10.03.16,19.13-2,27.32-6.48,8.33-4.47,12.65-12.19,12.96-23.15,0-6.63-1.08-11.88-3.24-15.74-2.16-3.86-5.09-6.63-8.8-8.33-3.7-1.85-8.03-3.01-12.96-3.47-4.94-.31-10.19-.46-15.74-.46h-16.44v57.64Z"/><path d="m1246.12,197.79h-18.98l-40.98-143.53h-.46l-41.67,143.53h-19.21l-46.3-161.58h15.97l40.28,143.53h.47l41.44-143.53h19.21l40.74,143.53h.46l40.51-143.53h15.28l-46.76,161.58Z"/></g></svg>