<svg width="149" height="149" viewBox="0 0 149 149" fill="none" xmlns="http://www.w3.org/2000/svg">
<path d="M43.6666 121.906H52.9166V104.948H69.875V95.6978H52.9166V78.7395H43.6666V95.6978H26.7083V104.948H43.6666V121.906ZM83.3645 115.161H121.714V105.911H83.3645V115.161ZM83.3645 94.5416H121.714V85.2916H83.3645V94.5416ZM90.302 64.8645L101.961 53.1093L113.812 64.8645L120.365 58.1197L108.609 46.3645L120.365 34.6093L113.812 28.0572L102.057 39.8124L90.302 28.0572L83.5573 34.6093L95.3125 46.3645L83.5573 58.1197L90.302 64.8645ZM29.5989 50.2187H66.9843V40.9687H29.5989V50.2187ZM18.4218 148.115C13.6459 148.115 9.52912 146.386 6.07154 142.928C2.6141 139.471 0.885376 135.354 0.885376 130.578V18.4218C0.885376 13.5928 2.6141 9.43066 6.07154 5.93545C9.52912 2.44023 13.6459 0.692627 18.4218 0.692627H130.578C135.407 0.692627 139.569 2.44023 143.064 5.93545C146.56 9.43066 148.307 13.5928 148.307 18.4218V130.578C148.307 135.354 146.56 139.471 143.064 142.928C139.569 146.386 135.407 148.115 130.578 148.115H18.4218ZM18.4218 130.578H130.578V18.4218H18.4218V130.578Z" fill="black"/>
</svg>
