<?xml version="1.0" encoding="utf-8"?>
<!-- Generator: Adobe Illustrator 25.3.1, SVG Export Plug-In . SVG Version: 6.00 Build 0)  -->
<svg version="1.1" id="Ebene_2" xmlns="http://www.w3.org/2000/svg" xmlns:xlink="http://www.w3.org/1999/xlink" x="0px" y="0px"
	 viewBox="0 0 206.6 67.7" style="enable-background:new 0 0 206.6 67.7;" xml:space="preserve">
<style type="text/css">
	.st0{fill:#FFFFFF;}
</style>
<path class="st0" d="M101.4,16.3l-5-13.4v13.4h-2V0h3l4.9,13.4l5-13.4h2.9v16.3h-2V2.9l-5,13.4H101.4z M118.3,16.5
	c-3.2,0-5.5-2.5-5.5-6.2c0-3.7,2.3-6.2,5.5-6.2c3.2,0,5.5,2.5,5.5,6.2C123.8,14,121.6,16.5,118.3,16.5z M118.3,14.8
	c2.1,0,3.4-1.7,3.4-4.4c0-2.7-1.4-4.4-3.4-4.4c-2.1,0-3.4,1.7-3.4,4.4C114.9,13,116.3,14.8,118.3,14.8z M128.5,14.5v1.7h-2V0h2v6.1
	c0.7-1.2,2-1.9,3.7-1.9c3.3,0,5.2,2.8,5.2,6.2c0,3.4-1.9,6.2-5.2,6.2C130.5,16.5,129.2,15.7,128.5,14.5z M128.4,10.8
	c0,2.7,1.7,3.9,3.4,3.9c2.2,0,3.5-1.8,3.5-4.4c0-2.6-1.2-4.4-3.5-4.4c-1.7,0-3.4,1.2-3.4,4V10.8z M139.8,0h2.2v2.4h-2.2V0z
	 M141.9,16.3h-2V4.4h2V16.3z M147.3,16.3h-2V0h2V16.3z M150.7,0h2.2v2.4h-2.2V0z M152.8,16.3h-2V4.4h2V16.3z M156.5,6.2h-1.8V4.4
	h1.8V1h2v3.5h2.7v1.7h-2.7v7c0,1.2,0.6,1.5,1.7,1.5c0.5,0,0.8,0,1.3-0.1v1.7c-0.5,0.1-1.1,0.2-1.8,0.2c-2,0-3.2-0.7-3.2-2.9V6.2z
	 M164.6,20.5c-0.5,0-0.7,0-1.1-0.1v-1.8c0.4,0.1,0.6,0.1,1,0.1c0.9,0,1.4-0.3,1.8-1.5l0.6-1.4l-4.4-11.4h2.2l3.3,9.1l3.3-9.1h2.1
	l-5.1,13.1C167.5,19.3,166.6,20.5,164.6,20.5z M94.4,25.7h5.2c4.9,0,8.1,3.2,8.1,8.1s-3.1,8.1-8.1,8.1h-5.2V25.7z M99.6,40.1
	c3.7,0,5.9-2.5,5.9-6.2c0-3.8-2.2-6.2-6-6.2h-3v12.5H99.6z M109.3,38.8c0-2.4,1.8-3.3,4.5-3.9l2.9-0.6v-0.5c0-1.4-0.7-2.1-2.3-2.1
	c-1.5,0-2.4,0.7-2.7,2l-1.9-0.5c0.6-1.9,2.3-3.3,4.7-3.3c2.6,0,4.3,1.3,4.3,3.8v5.8c0,0.8,0.5,1,1.3,0.8v1.6
	c-1.8,0.2-2.9-0.2-3.1-1.3c-0.7,0.9-2,1.5-3.6,1.5C111,42.1,109.3,40.9,109.3,38.8z M116.6,35.9l-2.3,0.5c-1.8,0.4-3,0.9-3,2.3
	c0,1.2,0.8,1.8,2.1,1.8c1.7,0,3.2-1.1,3.2-2.6V35.9z M122.4,31.8h-1.8v-1.7h1.8v-3.5h2v3.5h2.7v1.7h-2.7v7c0,1.2,0.6,1.5,1.7,1.5
	c0.5,0,0.8,0,1.3-0.1v1.7c-0.5,0.1-1.1,0.2-1.8,0.2c-2,0-3.2-0.7-3.2-2.9V31.8z M128.9,38.8c0-2.4,1.8-3.3,4.5-3.9l2.9-0.6v-0.5
	c0-1.4-0.7-2.1-2.3-2.1c-1.5,0-2.4,0.7-2.7,2l-1.9-0.5c0.6-1.9,2.3-3.3,4.7-3.3c2.6,0,4.3,1.3,4.3,3.8v5.8c0,0.8,0.5,1,1.3,0.8v1.6
	c-1.8,0.2-2.9-0.2-3.1-1.3c-0.7,0.9-2,1.5-3.6,1.5C130.6,42.1,128.9,40.9,128.9,38.8z M136.2,35.9l-2.3,0.5c-1.8,0.4-3,0.9-3,2.3
	c0,1.2,0.8,1.8,2.1,1.8c1.7,0,3.2-1.1,3.2-2.6V35.9z M146.6,37.2c1,1.9,2.9,3.1,5,3.1c2.1,0,3.7-1,3.7-2.9c0-2-1.9-2.3-4.3-2.9
	c-2.6-0.6-5.1-1.3-5.1-4.4c0-2.9,2.5-4.7,5.5-4.7c2.8,0,4.9,1.4,5.8,3.2l-1.7,1.3c-0.8-1.6-2.1-2.6-4.2-2.6c-2,0-3.4,1.1-3.4,2.6
	c0,1.7,1.5,2.1,3.8,2.6c2.7,0.6,5.7,1.2,5.7,4.6c0,3-2.7,5-5.9,5c-2.8,0-5.5-1.4-6.6-3.6L146.6,37.2z M161.8,40.2V46h-2V30.1h2v1.7
	c0.7-1.2,2-1.9,3.7-1.9c3.3,0,5.2,2.8,5.2,6.2c0,3.4-1.9,6.2-5.2,6.2C163.8,42.2,162.5,41.4,161.8,40.2z M161.8,36.5
	c0,2.7,1.7,3.9,3.4,3.9c2.2,0,3.5-1.8,3.5-4.4c0-2.6-1.2-4.4-3.5-4.4c-1.7,0-3.4,1.2-3.4,4V36.5z M172.3,38.8c0-2.4,1.8-3.3,4.5-3.9
	l2.9-0.6v-0.5c0-1.4-0.7-2.1-2.3-2.1c-1.5,0-2.4,0.7-2.7,2l-1.9-0.5c0.6-1.9,2.3-3.3,4.7-3.3c2.6,0,4.3,1.3,4.3,3.8v5.8
	c0,0.8,0.5,1,1.3,0.8v1.6c-1.8,0.2-2.9-0.2-3.1-1.3c-0.7,0.9-2,1.5-3.6,1.5C174,42.1,172.3,40.9,172.3,38.8z M179.7,35.9l-2.3,0.5
	c-1.8,0.4-3,0.9-3,2.3c0,1.2,0.8,1.8,2.1,1.8c1.7,0,3.2-1.1,3.2-2.6V35.9z M189.9,40.4c1.6,0,2.6-1,2.9-2.5l1.8,0.8
	c-0.6,2-2.3,3.5-4.8,3.5c-3.3,0-5.6-2.5-5.6-6.2c0-3.7,2.3-6.2,5.6-6.2c2.5,0,4.1,1.4,4.7,3.4l-1.8,0.9c-0.3-1.4-1.3-2.5-2.9-2.5
	c-2.1,0-3.6,1.7-3.6,4.4C186.4,38.7,187.8,40.4,189.9,40.4z M196.1,36c0-3.5,2.2-6.2,5.5-6.2c3.3,0,5,2.5,5,5.8v0.7H198
	c0.1,2.5,1.5,4.1,3.6,4.1c1.6,0,2.7-0.9,3.1-2.3l1.8,0.6c-0.7,2.1-2.5,3.4-4.9,3.4C198.4,42.2,196.1,39.7,196.1,36z M198.2,34.8h6.4
	c0-1.7-1-3.2-3-3.2C199.8,31.6,198.5,32.8,198.2,34.8z M58.5,67.5h-39L0,33.8L19.5,0h39L78,33.8L58.5,67.5z M24.7,65.1h31L48,51.7
	L24.7,65.1z M21.4,35v29.3l25.4-14.6L38.3,35H21.4z M50,50.5l7.8,13.4l15.5-26.9L50,50.5z M3.5,35L19,61.9V35H3.5z M41.1,35
	l7.8,13.4L72.1,35H41.1z M41,32.6h31.1L48.8,19.1L41,32.6z M21.4,32.6h16.9l8.5-14.6L21.4,3.3V32.6z M3.5,32.6H19V5.7L3.5,32.6z
	 M50,17l23.3,13.4L57.8,3.6L50,17z M24.7,2.4l23.3,13.4l7.8-13.4H24.7z"/>
</svg>
