<svg width="690" height="286" viewBox="0 0 690 286" fill="none" xmlns="http://www.w3.org/2000/svg">
<rect width="690" height="286" fill="white"/>
<path d="M488.641 107.75V176H474.578L447.156 130.25V176H433.094V107.75H447.156L474.625 153.547V107.75H488.641ZM500.875 107.75H526.328C531.547 107.75 536.031 108.531 539.781 110.094C543.562 111.656 546.469 113.969 548.5 117.031C550.531 120.094 551.547 123.859 551.547 128.328C551.547 131.984 550.922 135.125 549.672 137.75C548.453 140.344 546.719 142.516 544.469 144.266C542.25 145.984 539.641 147.359 536.641 148.391L532.188 150.734H510.062L509.969 139.766H526.422C528.891 139.766 530.938 139.328 532.562 138.453C534.188 137.578 535.406 136.359 536.219 134.797C537.062 133.234 537.484 131.422 537.484 129.359C537.484 127.172 537.078 125.281 536.266 123.688C535.453 122.094 534.219 120.875 532.562 120.031C530.906 119.188 528.828 118.766 526.328 118.766H514.938V176H500.875V107.75ZM539.031 176L523.469 145.578L538.328 145.484L554.078 175.344V176H539.031ZM578.828 165.172L592.422 107.75H600.016L601.75 117.312L587.266 176H579.109L578.828 165.172ZM571.844 107.75L583.094 165.172L582.156 176H573.062L557.922 107.75H571.844ZM613.703 164.938L624.812 107.75H638.734L623.641 176H614.547L613.703 164.938ZM604.281 107.75L617.969 165.406L617.594 176H609.438L594.859 117.266L596.734 107.75H604.281Z" fill="black"/>
<circle cx="7.73829" cy="7.73829" r="7.73829" transform="matrix(0.707107 -0.707107 -0.707107 -0.707107 366.6 94.2131)" fill="#B2D235"/>
<circle cx="7.73829" cy="7.73829" r="7.73829" transform="matrix(0.707107 -0.707107 -0.707107 -0.707107 366.6 94.2131)" fill="#B2D235"/>
<circle cx="5.15886" cy="5.15886" r="5.15886" transform="matrix(0.707107 -0.707107 -0.707107 -0.707107 382.651 78.1625)" fill="#B2D235"/>
<circle cx="5.15886" cy="5.15886" r="5.15886" transform="matrix(0.707107 -0.707107 -0.707107 -0.707107 382.651 78.1625)" fill="#B2D235"/>
<circle cx="2.57943" cy="2.57943" r="2.57943" transform="matrix(0.707107 -0.707107 -0.707107 -0.707107 395.054 65.7596)" fill="#B2D235"/>
<circle cx="2.57943" cy="2.57943" r="2.57943" transform="matrix(0.707107 -0.707107 -0.707107 -0.707107 395.054 65.7596)" fill="#B2D235"/>
<circle cx="7.73829" cy="7.73829" r="7.73829" transform="matrix(0.707107 -0.707107 -0.707107 -0.707107 287.807 173.007)" fill="#B2D235"/>
<circle cx="7.73829" cy="7.73829" r="7.73829" transform="matrix(0.707107 -0.707107 -0.707107 -0.707107 287.807 173.007)" fill="#B2D235"/>
<circle cx="5.15886" cy="5.15886" r="5.15886" transform="matrix(0.707107 -0.707107 -0.707107 -0.707107 275.404 185.41)" fill="#B2D235"/>
<circle cx="5.15886" cy="5.15886" r="5.15886" transform="matrix(0.707107 -0.707107 -0.707107 -0.707107 275.404 185.41)" fill="#B2D235"/>
<circle cx="2.57943" cy="2.57943" r="2.57943" transform="matrix(0.707107 -0.707107 -0.707107 -0.707107 266.649 194.164)" fill="#B2D235"/>
<circle cx="2.57943" cy="2.57943" r="2.57943" transform="matrix(0.707107 -0.707107 -0.707107 -0.707107 266.649 194.164)" fill="#B2D235"/>
<circle cx="348.726" cy="101.144" r="10.3177" transform="rotate(-45 348.726 101.144)" fill="#B2D235"/>
<circle cx="348.726" cy="101.144" r="10.3177" transform="rotate(-45 348.726 101.144)" fill="#B2D235"/>
<circle cx="305.681" cy="144.189" r="10.3177" transform="rotate(-45 305.681 144.189)" fill="#B2D235"/>
<circle cx="305.681" cy="144.189" r="10.3177" transform="rotate(-45 305.681 144.189)" fill="#B2D235"/>
<circle cx="327.203" cy="122.666" r="12.8971" transform="rotate(-45 327.203 122.666)" fill="#B2D235"/>
<circle cx="327.203" cy="122.666" r="12.8971" transform="rotate(-45 327.203 122.666)" fill="#B2D235"/>
<circle cx="7.73829" cy="7.73829" r="7.73829" transform="matrix(0.707107 -0.707107 -0.707107 -0.707107 366.6 94.2131)" fill="#B2D235"/>
<circle cx="7.73829" cy="7.73829" r="7.73829" transform="matrix(0.707107 -0.707107 -0.707107 -0.707107 366.6 94.2131)" fill="#B2D235"/>
<circle cx="5.15886" cy="5.15886" r="5.15886" transform="matrix(0.707107 -0.707107 -0.707107 -0.707107 382.651 78.1625)" fill="#B2D235"/>
<circle cx="5.15886" cy="5.15886" r="5.15886" transform="matrix(0.707107 -0.707107 -0.707107 -0.707107 382.651 78.1625)" fill="#B2D235"/>
<circle cx="2.57943" cy="2.57943" r="2.57943" transform="matrix(0.707107 -0.707107 -0.707107 -0.707107 395.054 65.7596)" fill="#B2D235"/>
<circle cx="2.57943" cy="2.57943" r="2.57943" transform="matrix(0.707107 -0.707107 -0.707107 -0.707107 395.054 65.7596)" fill="#B2D235"/>
<circle cx="7.73829" cy="7.73829" r="7.73829" transform="matrix(0.707107 -0.707107 -0.707107 -0.707107 287.807 173.007)" fill="#B2D235"/>
<circle cx="7.73829" cy="7.73829" r="7.73829" transform="matrix(0.707107 -0.707107 -0.707107 -0.707107 287.807 173.007)" fill="#B2D235"/>
<circle cx="5.15886" cy="5.15886" r="5.15886" transform="matrix(0.707107 -0.707107 -0.707107 -0.707107 275.404 185.41)" fill="#B2D235"/>
<circle cx="5.15886" cy="5.15886" r="5.15886" transform="matrix(0.707107 -0.707107 -0.707107 -0.707107 275.404 185.41)" fill="#B2D235"/>
<circle cx="2.57943" cy="2.57943" r="2.57943" transform="matrix(0.707107 -0.707107 -0.707107 -0.707107 266.649 194.164)" fill="#B2D235"/>
<circle cx="2.57943" cy="2.57943" r="2.57943" transform="matrix(0.707107 -0.707107 -0.707107 -0.707107 266.649 194.164)" fill="#B2D235"/>
<circle cx="348.726" cy="101.144" r="10.3177" transform="rotate(-45 348.726 101.144)" fill="#B2D235"/>
<circle cx="348.726" cy="101.144" r="10.3177" transform="rotate(-45 348.726 101.144)" fill="#B2D235"/>
<circle cx="305.681" cy="144.189" r="10.3177" transform="rotate(-45 305.681 144.189)" fill="#B2D235"/>
<circle cx="305.681" cy="144.189" r="10.3177" transform="rotate(-45 305.681 144.189)" fill="#B2D235"/>
<circle cx="327.203" cy="122.666" r="12.8971" transform="rotate(-45 327.203 122.666)" fill="#B2D235"/>
<circle cx="327.203" cy="122.666" r="12.8971" transform="rotate(-45 327.203 122.666)" fill="#B2D235"/>
<circle cx="7.73829" cy="7.73829" r="7.73829" transform="matrix(-0.707107 -0.707107 -0.707107 0.707107 296.561 124.855)" fill="#B2D235"/>
<circle cx="7.73829" cy="7.73829" r="7.73829" transform="matrix(-0.707107 -0.707107 -0.707107 0.707107 296.561 124.855)" fill="#B2D235"/>
<circle cx="5.15886" cy="5.15886" r="5.15886" transform="matrix(-0.707107 -0.707107 -0.707107 0.707107 280.511 108.804)" fill="#B2D235"/>
<circle cx="5.15886" cy="5.15886" r="5.15886" transform="matrix(-0.707107 -0.707107 -0.707107 0.707107 280.511 108.804)" fill="#B2D235"/>
<circle cx="2.57943" cy="2.57943" r="2.57943" transform="matrix(-0.707107 -0.707107 -0.707107 0.707107 268.108 96.4019)" fill="#B2D235"/>
<circle cx="2.57943" cy="2.57943" r="2.57943" transform="matrix(-0.707107 -0.707107 -0.707107 0.707107 268.108 96.4019)" fill="#B2D235"/>
<circle cx="7.73829" cy="7.73829" r="7.73829" transform="matrix(-0.707107 -0.707107 -0.707107 0.707107 375.355 203.649)" fill="#B2D235"/>
<circle cx="7.73829" cy="7.73829" r="7.73829" transform="matrix(-0.707107 -0.707107 -0.707107 0.707107 375.355 203.649)" fill="#B2D235"/>
<circle cx="5.15886" cy="5.15886" r="5.15886" transform="matrix(-0.707107 -0.707107 -0.707107 0.707107 387.758 216.052)" fill="#B2D235"/>
<circle cx="5.15886" cy="5.15886" r="5.15886" transform="matrix(-0.707107 -0.707107 -0.707107 0.707107 387.758 216.052)" fill="#B2D235"/>
<circle cx="2.57943" cy="2.57943" r="2.57943" transform="matrix(-0.707107 -0.707107 -0.707107 0.707107 396.513 224.807)" fill="#B2D235"/>
<circle cx="2.57943" cy="2.57943" r="2.57943" transform="matrix(-0.707107 -0.707107 -0.707107 0.707107 396.513 224.807)" fill="#B2D235"/>
<circle cx="325.015" cy="164.252" r="12.8971" transform="rotate(-135 325.015 164.252)" fill="#B2D235"/>
<circle cx="325.015" cy="164.252" r="12.8971" transform="rotate(-135 325.015 164.252)" fill="#B2D235"/>
<circle cx="7.73829" cy="7.73829" r="7.73829" transform="matrix(-0.707107 -0.707107 -0.707107 0.707107 296.561 124.855)" fill="#B2D235"/>
<circle cx="7.73829" cy="7.73829" r="7.73829" transform="matrix(-0.707107 -0.707107 -0.707107 0.707107 296.561 124.855)" fill="#B2D235"/>
<circle cx="5.15886" cy="5.15886" r="5.15886" transform="matrix(-0.707107 -0.707107 -0.707107 0.707107 280.511 108.804)" fill="#B2D235"/>
<circle cx="5.15886" cy="5.15886" r="5.15886" transform="matrix(-0.707107 -0.707107 -0.707107 0.707107 280.511 108.804)" fill="#B2D235"/>
<circle cx="2.57943" cy="2.57943" r="2.57943" transform="matrix(-0.707107 -0.707107 -0.707107 0.707107 268.108 96.4019)" fill="#B2D235"/>
<circle cx="2.57943" cy="2.57943" r="2.57943" transform="matrix(-0.707107 -0.707107 -0.707107 0.707107 268.108 96.4019)" fill="#B2D235"/>
<circle cx="7.73829" cy="7.73829" r="7.73829" transform="matrix(-0.707107 -0.707107 -0.707107 0.707107 375.355 203.649)" fill="#B2D235"/>
<circle cx="7.73829" cy="7.73829" r="7.73829" transform="matrix(-0.707107 -0.707107 -0.707107 0.707107 375.355 203.649)" fill="#B2D235"/>
<circle cx="5.15886" cy="5.15886" r="5.15886" transform="matrix(-0.707107 -0.707107 -0.707107 0.707107 387.758 216.052)" fill="#B2D235"/>
<circle cx="5.15886" cy="5.15886" r="5.15886" transform="matrix(-0.707107 -0.707107 -0.707107 0.707107 387.758 216.052)" fill="#B2D235"/>
<circle cx="2.57943" cy="2.57943" r="2.57943" transform="matrix(-0.707107 -0.707107 -0.707107 0.707107 396.513 224.807)" fill="#B2D235"/>
<circle cx="2.57943" cy="2.57943" r="2.57943" transform="matrix(-0.707107 -0.707107 -0.707107 0.707107 396.513 224.807)" fill="#B2D235"/>
<circle cx="325.015" cy="164.252" r="12.8971" transform="rotate(-135 325.015 164.252)" fill="#B2D235"/>
<circle cx="325.015" cy="164.252" r="12.8971" transform="rotate(-135 325.015 164.252)" fill="#B2D235"/>
<circle cx="7.73829" cy="7.73829" r="7.73829" transform="matrix(0.707107 -0.707107 -0.707107 -0.707107 405.632 133.245)" fill="#B2D235"/>
<circle cx="7.73829" cy="7.73829" r="7.73829" transform="matrix(0.707107 -0.707107 -0.707107 -0.707107 405.632 133.245)" fill="#B2D235"/>
<circle cx="5.15886" cy="5.15886" r="5.15886" transform="matrix(0.707107 -0.707107 -0.707107 -0.707107 418.035 113.547)" fill="#B2D235"/>
<circle cx="5.15886" cy="5.15886" r="5.15886" transform="matrix(0.707107 -0.707107 -0.707107 -0.707107 418.035 113.547)" fill="#B2D235"/>
<circle cx="2.57943" cy="2.57943" r="2.57943" transform="matrix(0.707107 -0.707107 -0.707107 -0.707107 426.79 97.4961)" fill="#B2D235"/>
<circle cx="2.57943" cy="2.57943" r="2.57943" transform="matrix(0.707107 -0.707107 -0.707107 -0.707107 426.79 97.4961)" fill="#B2D235"/>
<circle cx="7.73829" cy="7.73829" r="7.73829" transform="matrix(0.707107 -0.707107 -0.707107 -0.707107 326.839 212.039)" fill="#B2D235"/>
<circle cx="7.73829" cy="7.73829" r="7.73829" transform="matrix(0.707107 -0.707107 -0.707107 -0.707107 326.839 212.039)" fill="#B2D235"/>
<circle cx="5.15886" cy="5.15886" r="5.15886" transform="matrix(0.707107 -0.707107 -0.707107 -0.707107 310.788 220.794)" fill="#B2D235"/>
<circle cx="5.15886" cy="5.15886" r="5.15886" transform="matrix(0.707107 -0.707107 -0.707107 -0.707107 310.788 220.794)" fill="#B2D235"/>
<circle cx="2.57943" cy="2.57943" r="2.57943" transform="matrix(0.707107 -0.707107 -0.707107 -0.707107 298.385 225.901)" fill="#B2D235"/>
<circle cx="2.57943" cy="2.57943" r="2.57943" transform="matrix(0.707107 -0.707107 -0.707107 -0.707107 298.385 225.901)" fill="#B2D235"/>
<circle cx="387.758" cy="140.176" r="10.3177" transform="rotate(-45 387.758 140.176)" fill="#B2D235"/>
<circle cx="387.758" cy="140.176" r="10.3177" transform="rotate(-45 387.758 140.176)" fill="#B2D235"/>
<circle cx="344.713" cy="183.221" r="10.3177" transform="rotate(-45 344.713 183.221)" fill="#B2D235"/>
<circle cx="344.713" cy="183.221" r="10.3177" transform="rotate(-45 344.713 183.221)" fill="#B2D235"/>
<circle cx="366.236" cy="161.698" r="12.8971" transform="rotate(-45 366.236 161.698)" fill="#B2D235"/>
<circle cx="366.236" cy="161.698" r="12.8971" transform="rotate(-45 366.236 161.698)" fill="#B2D235"/>
<circle cx="7.73829" cy="7.73829" r="7.73829" transform="matrix(-0.707107 -0.707107 -0.707107 0.707107 340.336 80.3512)" fill="#B2D235"/>
<circle cx="7.73829" cy="7.73829" r="7.73829" transform="matrix(-0.707107 -0.707107 -0.707107 0.707107 340.336 80.3512)" fill="#B2D235"/>
<circle cx="5.15886" cy="5.15886" r="5.15886" transform="matrix(-0.707107 -0.707107 -0.707107 0.707107 320.637 67.9485)" fill="#B2D235"/>
<circle cx="5.15886" cy="5.15886" r="5.15886" transform="matrix(-0.707107 -0.707107 -0.707107 0.707107 320.637 67.9485)" fill="#B2D235"/>
<circle cx="2.57943" cy="2.57943" r="2.57943" transform="matrix(-0.707107 -0.707107 -0.707107 0.707107 304.587 59.1936)" fill="#B2D235"/>
<circle cx="2.57943" cy="2.57943" r="2.57943" transform="matrix(-0.707107 -0.707107 -0.707107 0.707107 304.587 59.1936)" fill="#B2D235"/>
<circle cx="7.73829" cy="7.73829" r="7.73829" transform="matrix(-0.707107 -0.707107 -0.707107 0.707107 419.13 159.145)" fill="#B2D235"/>
<circle cx="7.73829" cy="7.73829" r="7.73829" transform="matrix(-0.707107 -0.707107 -0.707107 0.707107 419.13 159.145)" fill="#B2D235"/>
<circle cx="5.15886" cy="5.15886" r="5.15886" transform="matrix(-0.707107 -0.707107 -0.707107 0.707107 427.885 175.196)" fill="#B2D235"/>
<circle cx="5.15886" cy="5.15886" r="5.15886" transform="matrix(-0.707107 -0.707107 -0.707107 0.707107 427.885 175.196)" fill="#B2D235"/>
<circle cx="2.57943" cy="2.57943" r="2.57943" transform="matrix(-0.707107 -0.707107 -0.707107 0.707107 432.991 187.598)" fill="#B2D235"/>
<circle cx="2.57943" cy="2.57943" r="2.57943" transform="matrix(-0.707107 -0.707107 -0.707107 0.707107 432.991 187.598)" fill="#B2D235"/>
<circle cx="368.789" cy="119.748" r="12.8971" transform="rotate(-135 368.789 119.748)" fill="#B2D235"/>
<circle cx="368.789" cy="119.748" r="12.8971" transform="rotate(-135 368.789 119.748)" fill="#B2D235"/>
<circle cx="10.3177" cy="10.3177" r="10.3177" transform="matrix(0.707107 -0.707107 -0.707107 -0.707107 388.398 115.512)" fill="#B2D235"/>
<circle cx="10.3177" cy="10.3177" r="10.3177" transform="matrix(0.707107 -0.707107 -0.707107 -0.707107 388.398 115.512)" fill="#B2D235"/>
<circle cx="7.73829" cy="7.73829" r="7.73829" transform="matrix(0.707107 -0.707107 -0.707107 -0.707107 403.38 96.2045)" fill="#B2D235"/>
<circle cx="7.73829" cy="7.73829" r="7.73829" transform="matrix(0.707107 -0.707107 -0.707107 -0.707107 403.38 96.2045)" fill="#B2D235"/>
<circle cx="5.15886" cy="5.15886" r="5.15886" transform="matrix(0.707107 -0.707107 -0.707107 -0.707107 413.62 82.3685)" fill="#B2D235"/>
<circle cx="5.15886" cy="5.15886" r="5.15886" transform="matrix(0.707107 -0.707107 -0.707107 -0.707107 413.62 82.3685)" fill="#B2D235"/>
<circle cx="10.3177" cy="10.3177" r="10.3177" transform="matrix(0.707107 -0.707107 -0.707107 -0.707107 305.591 198.319)" fill="#B2D235"/>
<circle cx="10.3177" cy="10.3177" r="10.3177" transform="matrix(0.707107 -0.707107 -0.707107 -0.707107 305.591 198.319)" fill="#B2D235"/>
<circle cx="7.73829" cy="7.73829" r="7.73829" transform="matrix(0.707107 -0.707107 -0.707107 -0.707107 289.931 209.653)" fill="#B2D235"/>
<circle cx="7.73829" cy="7.73829" r="7.73829" transform="matrix(0.707107 -0.707107 -0.707107 -0.707107 289.931 209.653)" fill="#B2D235"/>
<circle cx="5.15886" cy="5.15886" r="5.15886" transform="matrix(0.707107 -0.707107 -0.707107 -0.707107 279.494 216.494)" fill="#B2D235"/>
<circle cx="5.15886" cy="5.15886" r="5.15886" transform="matrix(0.707107 -0.707107 -0.707107 -0.707107 279.494 216.494)" fill="#B2D235"/>
<circle cx="368.737" cy="120.059" r="11.6074" transform="rotate(-45 368.737 120.059)" fill="#B2D235"/>
<circle cx="368.737" cy="120.059" r="11.6074" transform="rotate(-45 368.737 120.059)" fill="#B2D235"/>
<circle cx="324.598" cy="164.198" r="11.6074" transform="rotate(-45 324.598 164.198)" fill="#B2D235"/>
<circle cx="324.598" cy="164.198" r="11.6074" transform="rotate(-45 324.598 164.198)" fill="#B2D235"/>
<circle cx="346.681" cy="142.116" r="12.8971" transform="rotate(-45 346.681 142.116)" fill="#B2D235"/>
<circle cx="346.681" cy="142.116" r="12.8971" transform="rotate(-45 346.681 142.116)" fill="#B2D235"/>
<circle cx="10.3177" cy="10.3177" r="10.3177" transform="matrix(-0.707107 -0.707107 -0.707107 0.707107 319.804 100.153)" fill="#B2D235"/>
<circle cx="10.3177" cy="10.3177" r="10.3177" transform="matrix(-0.707107 -0.707107 -0.707107 0.707107 319.804 100.153)" fill="#B2D235"/>
<circle cx="7.73829" cy="7.73829" r="7.73829" transform="matrix(-0.707107 -0.707107 -0.707107 0.707107 300.496 85.1711)" fill="#B2D235"/>
<circle cx="7.73829" cy="7.73829" r="7.73829" transform="matrix(-0.707107 -0.707107 -0.707107 0.707107 300.496 85.1711)" fill="#B2D235"/>
<circle cx="5.15886" cy="5.15886" r="5.15886" transform="matrix(-0.707107 -0.707107 -0.707107 0.707107 286.66 74.9312)" fill="#B2D235"/>
<circle cx="5.15886" cy="5.15886" r="5.15886" transform="matrix(-0.707107 -0.707107 -0.707107 0.707107 286.66 74.9312)" fill="#B2D235"/>
<circle cx="10.3177" cy="10.3177" r="10.3177" transform="matrix(-0.707107 -0.707107 -0.707107 0.707107 402.61 182.96)" fill="#B2D235"/>
<circle cx="10.3177" cy="10.3177" r="10.3177" transform="matrix(-0.707107 -0.707107 -0.707107 0.707107 402.61 182.96)" fill="#B2D235"/>
<circle cx="7.73829" cy="7.73829" r="7.73829" transform="matrix(-0.707107 -0.707107 -0.707107 0.707107 413.945 198.62)" fill="#B2D235"/>
<circle cx="7.73829" cy="7.73829" r="7.73829" transform="matrix(-0.707107 -0.707107 -0.707107 0.707107 413.945 198.62)" fill="#B2D235"/>
<circle cx="5.15886" cy="5.15886" r="5.15886" transform="matrix(-0.707107 -0.707107 -0.707107 0.707107 420.786 209.057)" fill="#B2D235"/>
<circle cx="5.15886" cy="5.15886" r="5.15886" transform="matrix(-0.707107 -0.707107 -0.707107 0.707107 420.786 209.057)" fill="#B2D235"/>
<circle cx="346.407" cy="141.87" r="12.8971" transform="rotate(-135 346.407 141.87)" fill="#B2D235"/>
<circle cx="346.407" cy="141.87" r="12.8971" transform="rotate(-135 346.407 141.87)" fill="#B2D235"/>
<path d="M67.5156 107.75H79.4219L96.9531 157.859L114.484 107.75H126.391L101.734 176H92.1719L67.5156 107.75ZM61.0938 107.75H72.9531L75.1094 156.594V176H61.0938V107.75ZM120.953 107.75H132.859V176H118.797V156.594L120.953 107.75ZM166.141 176H151.281L151.375 165.031H166.141C169.828 165.031 172.938 164.203 175.469 162.547C178 160.859 179.906 158.406 181.188 155.188C182.5 151.969 183.156 148.078 183.156 143.516V140.188C183.156 136.688 182.781 133.609 182.031 130.953C181.312 128.297 180.234 126.062 178.797 124.25C177.359 122.438 175.594 121.078 173.5 120.172C171.406 119.234 169 118.766 166.281 118.766H151V107.75H166.281C170.844 107.75 175.016 108.531 178.797 110.094C182.609 111.625 185.906 113.828 188.688 116.703C191.469 119.578 193.609 123.016 195.109 127.016C196.641 130.984 197.406 135.406 197.406 140.281V143.516C197.406 148.359 196.641 152.781 195.109 156.781C193.609 160.781 191.469 164.219 188.688 167.094C185.938 169.938 182.641 172.141 178.797 173.703C174.984 175.234 170.766 176 166.141 176ZM159.25 107.75V176H145.188V107.75H159.25ZM243.156 158.141C243.156 156.922 242.969 155.828 242.594 154.859C242.25 153.859 241.594 152.953 240.625 152.141C239.656 151.297 238.297 150.469 236.547 149.656C234.797 148.844 232.531 148 229.75 147.125C226.656 146.125 223.719 145 220.938 143.75C218.188 142.5 215.75 141.047 213.625 139.391C211.531 137.703 209.875 135.75 208.656 133.531C207.469 131.312 206.875 128.734 206.875 125.797C206.875 122.953 207.5 120.375 208.75 118.062C210 115.719 211.75 113.719 214 112.062C216.25 110.375 218.906 109.078 221.969 108.172C225.062 107.266 228.453 106.812 232.141 106.812C237.172 106.812 241.562 107.719 245.312 109.531C249.062 111.344 251.969 113.828 254.031 116.984C256.125 120.141 257.172 123.75 257.172 127.812H243.203C243.203 125.812 242.781 124.062 241.938 122.562C241.125 121.031 239.875 119.828 238.188 118.953C236.531 118.078 234.438 117.641 231.906 117.641C229.469 117.641 227.438 118.016 225.812 118.766C224.188 119.484 222.969 120.469 222.156 121.719C221.344 122.938 220.938 124.312 220.938 125.844C220.938 127 221.219 128.047 221.781 128.984C222.375 129.922 223.25 130.797 224.406 131.609C225.562 132.422 226.984 133.188 228.672 133.906C230.359 134.625 232.312 135.328 234.531 136.016C238.25 137.141 241.516 138.406 244.328 139.812C247.172 141.219 249.547 142.797 251.453 144.547C253.359 146.297 254.797 148.281 255.766 150.5C256.734 152.719 257.219 155.234 257.219 158.047C257.219 161.016 256.641 163.672 255.484 166.016C254.328 168.359 252.656 170.344 250.469 171.969C248.281 173.594 245.672 174.828 242.641 175.672C239.609 176.516 236.219 176.938 232.469 176.938C229.094 176.938 225.766 176.5 222.484 175.625C219.203 174.719 216.219 173.359 213.531 171.547C210.875 169.734 208.75 167.422 207.156 164.609C205.562 161.797 204.766 158.469 204.766 154.625H218.875C218.875 156.75 219.203 158.547 219.859 160.016C220.516 161.484 221.438 162.672 222.625 163.578C223.844 164.484 225.281 165.141 226.938 165.547C228.625 165.953 230.469 166.156 232.469 166.156C234.906 166.156 236.906 165.812 238.469 165.125C240.062 164.438 241.234 163.484 241.984 162.266C242.766 161.047 243.156 159.672 243.156 158.141Z" fill="black"/>
</svg>
