<?xml version="1.0" encoding="UTF-8"?><svg id="Ebene_2" xmlns="http://www.w3.org/2000/svg" viewBox="0 0 583.68 502.55"><defs><style>.cls-1{fill:#179c7d;}.cls-2{fill:#b2d235;}</style></defs><g id="Ebene_2-2"><circle class="cls-2" cx="256" cy="298.2" r="43.17"/><path class="cls-1" d="m180.91,266.29c-23.84,0-43.17-19.33-43.17-43.17s19.33-43.17,43.17-43.17,43.17,19.33,43.17,43.17-19.33,43.17-43.17,43.17Z"/><circle class="cls-2" cx="190.28" cy="363.92" r="33.47"/><circle class="cls-1" cx="115.2" cy="288.83" r="33.47"/><circle class="cls-2" cx="124.27" cy="417.96" r="25.47"/><circle class="cls-1" cx="64.14" cy="357.84" r="25.47"/><circle class="cls-2" cx="69.58" cy="466.67" r="17.46"/><circle class="cls-1" cx="18.43" cy="415.52" r="17.46"/><circle class="cls-2" cx="9.38" cy="472.93" r="9.38"/><circle class="cls-2" cx="401.77" cy="292.69" r="43.17"/><circle class="cls-1" cx="467.49" cy="358.41" r="33.47"/><circle class="cls-2" cx="323.59" cy="364.69" r="33.47"/><circle class="cls-1" cx="521.53" cy="424.42" r="25.47"/><circle class="cls-2" cx="392.59" cy="415.74" r="25.47"/><circle class="cls-1" cx="552.29" cy="485.09" r="17.46"/><circle class="cls-2" cx="450.28" cy="461.46" r="17.46"/><circle class="cls-1" cx="401.99" cy="292.46" r="43.17"/><circle class="cls-2" cx="327.67" cy="215.5" r="43.17"/><circle class="cls-2" cx="393.39" cy="149.79" r="33.47"/><circle class="cls-1" cx="468.48" cy="224.87" r="33.47"/><path class="cls-2" d="m484.87,95.74c0,14.06-11.4,25.47-25.47,25.47-14.06,0-25.47-11.4-25.47-25.47s11.4-25.47,25.47-25.47,25.47,11.4,25.47,25.47Z"/><circle class="cls-1" cx="519.53" cy="155.87" r="25.47"/><circle class="cls-2" cx="514.09" cy="47.04" r="17.46"/><circle class="cls-1" cx="565.25" cy="98.19" r="17.46"/><circle class="cls-1" cx="574.3" cy="40.78" r="9.38"/><circle class="cls-1" cx="109.39" cy="150.13" r="33.47"/><circle class="cls-2" cx="253.28" cy="143.85" r="33.47"/><circle class="cls-1" cx="55.35" cy="84.12" r="25.47"/><circle class="cls-2" cx="184.28" cy="92.8" r="25.47"/><circle class="cls-1" cx="24.59" cy="17.46" r="17.46"/><circle class="cls-2" cx="126.6" cy="47.08" r="17.46"/></g></svg>