<svg width="46" height="45" viewBox="0 0 46 45" fill="none" xmlns="http://www.w3.org/2000/svg">
<path d="M37.25 16.7248L34.7628 11.362L29.35 8.8248L34.7628 6.33766L37.25 0.924805L39.8314 6.34335L45.2 8.8248L39.8314 11.3563L37.25 16.7248ZM41.4 32.3248L39.962 29.2128L36.8 27.7248L39.962 26.2868L41.4 23.1748L42.888 26.2868L46 27.7248L42.892 29.2168L41.4 32.3248ZM12.7 44.6248L12.15 39.7748C11.85 39.8526 11.4979 39.7979 11.0937 39.6109C10.6895 39.4239 10.3583 39.1952 10.1 38.9248L6.09995 40.6248L0.699951 31.8748L4.74995 29.2748C4.58328 28.8748 4.49995 28.5248 4.49995 28.2248C4.49995 27.9248 4.58328 27.5581 4.74995 27.1248L0.699951 24.5748L6.09995 15.8248L10.1 17.4748C10.3416 17.2285 10.6687 17.0155 11.0812 16.8359C11.4937 16.6563 11.85 16.5859 12.15 16.6248L12.7037 11.8248H22.9L23.45 16.6248C23.75 16.5859 24.0979 16.6563 24.4937 16.8359C24.8895 17.0155 25.2416 17.2285 25.55 17.4748L29.55 15.8248L34.9 24.5748L30.9 27.1248C31.0333 27.5581 31.1 27.9248 31.1 28.2248C31.1 28.5248 31.0333 28.8748 30.9 29.2748L34.9 31.8748L29.55 40.6248L25.55 38.9248C25.25 39.2063 24.9 39.4378 24.5 39.6193C24.1 39.8007 23.75 39.8526 23.45 39.7748L22.8962 44.6248H12.7ZM17.8323 34.2748C19.5107 34.2748 20.925 33.6953 22.075 32.5363C23.225 31.3773 23.8 29.926 23.8 28.1822C23.8 26.4773 23.2142 25.0581 22.0426 23.9248C20.871 22.7915 19.4377 22.2248 17.7426 22.2248C16.0475 22.2248 14.6333 22.8036 13.5 23.9613C12.3666 25.119 11.8 26.5593 11.8 28.2822C11.8 29.9773 12.376 31.3998 13.5282 32.5498C14.6803 33.6998 16.115 34.2748 17.8323 34.2748ZM17.7956 31.4248C16.8801 31.4248 16.127 31.1196 15.5362 30.5092C14.9454 29.8988 14.65 29.1358 14.65 28.2204C14.65 27.305 14.9468 26.5519 15.5406 25.9611C16.1343 25.3702 16.8889 25.0748 17.8044 25.0748C18.7198 25.0748 19.4729 25.3717 20.0637 25.9655C20.6545 26.5592 20.95 27.3138 20.95 28.2292C20.95 29.1446 20.6531 29.9061 20.0593 30.5136C19.4656 31.1211 18.711 31.4248 17.7956 31.4248ZM16.1139 40.6248H19.4861L19.8824 36.8248C20.801 36.6248 21.6705 36.2998 22.4907 35.8498C23.311 35.3998 24.054 34.8248 24.7198 34.1248L27.9798 35.5748L29.6 32.9748L26.55 30.7748C26.8833 29.9315 27.05 29.0707 27.05 28.1924C27.05 27.314 26.8833 26.4581 26.55 25.6248L29.6 23.4248L27.9798 20.8248L24.7198 22.2748C24.054 21.5748 23.3151 21.0081 22.5032 20.5748C21.6913 20.1415 20.8152 19.8081 19.875 19.5748L19.4722 15.7748H16.1278L15.7352 19.5748C14.7588 19.8081 13.8671 20.1415 13.0603 20.5748C12.2534 21.0081 11.5205 21.5748 10.8616 22.2748L7.62015 20.8248L5.99995 23.4248L9.04995 25.6248C8.68328 26.4581 8.49995 27.3165 8.49995 28.1998C8.49995 29.0831 8.68328 29.9415 9.04995 30.7748L5.99995 32.9748L7.62015 35.5748L10.8616 34.1248C11.5205 34.8248 12.2556 35.3998 13.0668 35.8498C13.878 36.2998 14.7581 36.6248 15.7073 36.8248L16.1139 40.6248Z" fill="black"/>
</svg>
